<svg width="30" height="30" viewBox="0 0 30 30" fill="none" xmlns="http://www.w3.org/2000/svg">
<path fill-rule="evenodd" clip-rule="evenodd" d="M30 0H0V30H30V0ZM15.2987 9.16249C19.2162 9.36874 22.8824 10.1187 25.6112 11.2812L25.6212 11.2887V11.3012C28.5337 12.5387 30.0837 14.1387 29.9962 15.8012C29.9212 17.2687 28.6149 18.5387 26.2337 19.4637C26.1636 19.4915 26.0886 19.505 26.0132 19.5036C25.9378 19.5021 25.8635 19.4856 25.7945 19.4552C25.7255 19.4247 25.6633 19.3808 25.6114 19.326C25.5596 19.2713 25.5191 19.2068 25.4924 19.1362C25.4382 18.9942 25.4418 18.8366 25.5026 18.6973C25.5634 18.558 25.6764 18.4481 25.8174 18.3912C27.6937 17.6637 28.7987 16.6975 28.8487 15.7412C28.9624 13.5237 23.4062 10.7525 15.2437 10.3237C14.4837 10.2762 13.7512 10.2637 13.0762 10.2637H12.5837C12.0612 10.96 11.5474 11.69 11.0537 12.445C10.5599 13.2075 10.1099 13.9725 9.68492 14.7325C10.0137 15.52 10.3849 16.3262 10.8099 17.145C14.5174 24.4262 19.3099 28.3862 21.2974 27.37C23.1849 26.4075 22.9474 20.6725 19.5849 13.67C19.5243 13.5331 19.5195 13.378 19.5715 13.2377C19.6234 13.0973 19.728 12.9827 19.8631 12.9183C19.9982 12.8538 20.1531 12.8446 20.2949 12.8925C20.4367 12.9405 20.5542 13.0418 20.6224 13.175C22.2399 16.5375 23.2849 19.9087 23.5649 22.675C23.8674 25.6312 23.2487 27.6625 21.8174 28.3937C21.4474 28.5787 21.0349 28.6725 20.5974 28.6725C19.2712 28.6725 17.6612 27.8312 15.9287 26.2187C13.7537 24.1962 11.5724 21.1575 9.79117 17.6625C9.51617 17.1162 9.25367 16.5687 9.00367 16.0212C8.00242 18.0087 7.26867 19.9387 6.86867 21.6712C6.28617 24.2125 6.49367 26.0225 7.44367 26.6412C8.34117 27.2275 9.96617 26.7662 11.8962 25.3875C11.9572 25.34 12.0271 25.3053 12.1019 25.2856C12.1766 25.2658 12.2546 25.2614 12.3311 25.2726C12.4076 25.2839 12.481 25.3104 12.547 25.3508C12.6129 25.3912 12.67 25.4445 12.7148 25.5075C12.7595 25.5705 12.7911 25.642 12.8075 25.7175C12.8239 25.7931 12.8249 25.8712 12.8103 25.9471C12.7957 26.023 12.7659 26.0952 12.7226 26.1593C12.6794 26.2234 12.6236 26.278 12.5587 26.32C10.9587 27.46 9.54367 28.035 8.37492 28.035C7.79117 28.035 7.26617 27.89 6.81617 27.5975C5.41617 26.6875 5.04117 24.4937 5.74117 21.4125C6.21742 19.3462 7.13992 17.0225 8.41242 14.6625C7.87492 13.34 7.43742 12.0425 7.09992 10.8C3.36492 11.5375 1.21242 12.925 1.14992 14.275C1.09117 15.2375 2.06617 16.2887 3.87867 17.2225C3.95118 17.2536 4.01651 17.2993 4.07059 17.3567C4.12468 17.4142 4.16636 17.4822 4.19305 17.5564C4.21974 17.6307 4.23086 17.7096 4.22573 17.7883C4.22059 17.8671 4.19931 17.9439 4.1632 18.0141C4.12709 18.0842 4.07693 18.1462 4.01584 18.1961C3.95475 18.246 3.88404 18.2829 3.80811 18.3043C3.73217 18.3257 3.65264 18.3313 3.57446 18.3207C3.49628 18.31 3.42113 18.2834 3.35367 18.2425C1.08492 17.07 -0.0713261 15.6775 0.0036739 14.215C0.116174 12.1475 2.72867 10.505 6.82992 9.68499C6.66742 8.98749 6.55492 8.30999 6.46742 7.65999C6.09242 4.52124 6.69242 2.37124 8.17992 1.61249C8.49442 1.45901 8.83487 1.36574 9.18367 1.33749C10.3712 1.24999 11.8237 1.88749 13.3987 3.19124C13.4565 3.23925 13.5044 3.29819 13.5395 3.36469C13.5746 3.4312 13.5962 3.50396 13.6032 3.57883C13.6101 3.6537 13.6023 3.72921 13.5801 3.80104C13.5579 3.87288 13.5217 3.93963 13.4737 3.99749C13.2737 4.24749 12.9087 4.27249 12.6662 4.07249C11.3537 2.97874 10.1499 2.41749 9.27867 2.48499C9.06367 2.50249 8.87992 2.54874 8.70742 2.63999C7.47742 3.26499 7.15742 5.86499 7.96492 9.48624C9.20492 9.28999 10.5624 9.17124 12.0049 9.12749C15.3174 4.85249 18.9299 2.07374 21.4924 1.97749C22.1299 1.95374 22.7049 2.09999 23.1799 2.40999C24.5049 3.27499 24.9174 5.23249 24.3549 8.08249C24.2924 8.39499 23.9924 8.59499 23.6799 8.53249C23.3799 8.47374 23.1799 8.16999 23.2299 7.85749C23.6799 5.57999 23.4312 3.94249 22.5487 3.36999C22.2762 3.19374 21.9349 3.10874 21.5324 3.12499C19.4887 3.19999 16.3837 5.57499 13.4862 9.11249C14.0649 9.11249 14.6737 9.12499 15.2987 9.16249ZM9.13617 13.3675C9.44117 12.8462 9.75367 12.3312 10.0912 11.8125L10.0949 11.7987V11.8112C10.4274 11.2912 10.7699 10.7862 11.1199 10.2987C10.0887 10.3612 9.12367 10.4612 8.23242 10.5987C8.48802 11.5359 8.78964 12.46 9.13617 13.3675ZM13.7821 13.7847C14.1044 13.4623 14.5416 13.2812 14.9974 13.2812C15.4533 13.2812 15.8904 13.4623 16.2128 13.7847C16.5351 14.107 16.7162 14.5442 16.7162 15C16.7162 15.4558 16.5351 15.893 16.2128 16.2153C15.8904 16.5377 15.4533 16.7187 14.9974 16.7187C14.5416 16.7187 14.1044 16.5377 13.7821 16.2153C13.4598 15.893 13.2787 15.4558 13.2787 15C13.2787 14.5442 13.4598 14.107 13.7821 13.7847Z" fill="#1D1D1D"/>
</svg>
