<svg width="36" height="36" viewBox="0 0 36 36" fill="none" xmlns="http://www.w3.org/2000/svg">
<path fill-rule="evenodd" clip-rule="evenodd" d="M36 0H0V36H36V0ZM18.2238 4.05279C18.083 3.9824 17.9174 3.9824 17.7766 4.05279L14.7766 5.55279C14.5692 5.65649 14.4603 5.88919 14.5136 6.11488C14.5669 6.34056 14.7683 6.5 15.0002 6.5H21.0002C21.2321 6.5 21.4335 6.34056 21.4868 6.11488C21.5401 5.88919 21.4312 5.65649 21.2238 5.55279L18.2238 4.05279ZM18.0002 5.05902L18.8822 5.5H17.1182L18.0002 5.05902ZM9.22381 9.44721C9.4708 9.32372 9.57091 9.02338 9.44741 8.77639C9.32392 8.5294 9.02358 8.42929 8.77659 8.55279L5.77659 10.0528C5.6072 10.1375 5.5002 10.3106 5.5002 10.5V14.25C5.5002 14.5261 5.72406 14.75 6.0002 14.75C6.27634 14.75 6.5002 14.5261 6.5002 14.25V11.309L8.77659 12.4472C9.02358 12.5707 9.32392 12.4706 9.44741 12.2236C9.57091 11.9766 9.4708 11.6763 9.22381 11.5528L7.11823 10.5L9.22381 9.44721ZM27.2238 8.55279C26.9768 8.42929 26.6765 8.5294 26.553 8.77639C26.4295 9.02338 26.5296 9.32372 26.7766 9.44721L28.8822 10.5L26.7766 11.5528C26.5296 11.6763 26.4295 11.9766 26.553 12.2236C26.6765 12.4706 26.9768 12.5707 27.2238 12.4472L29.5002 11.309V14.25C29.5002 14.5261 29.7241 14.75 30.0002 14.75C30.2763 14.75 30.5002 14.5261 30.5002 14.25V10.5C30.5002 10.3106 30.3932 10.1375 30.2238 10.0528L27.2238 8.55279ZM15.2238 14.5528C14.9768 14.4293 14.6765 14.5294 14.553 14.7764C14.4295 15.0234 14.5296 15.3237 14.7766 15.4472L17.5002 16.809V20.25C17.5002 20.5261 17.7241 20.75 18.0002 20.75C18.2763 20.75 18.5002 20.5261 18.5002 20.25V16.809L21.2238 15.4472C21.4708 15.3237 21.5709 15.0234 21.4474 14.7764C21.3239 14.5294 21.0236 14.4293 20.7766 14.5528L18.0002 15.941L15.2238 14.5528ZM6.43432 21.5019C6.32184 21.3051 6.09099 21.2086 5.87187 21.2668C5.65274 21.3249 5.5002 21.5233 5.5002 21.75V25.5C5.5002 25.6894 5.6072 25.8625 5.77659 25.9472L8.77659 27.4472C8.97367 27.5457 9.21201 27.5037 9.36343 27.3436C9.51484 27.1835 9.54364 26.9432 9.43432 26.7519L6.43432 21.5019ZM30.5002 21.75C30.5002 21.4739 30.2763 21.25 30.0002 21.25C29.7241 21.25 29.5002 21.4739 29.5002 21.75V25.191L26.7766 26.5528C26.5296 26.6763 26.4295 26.9766 26.553 27.2236C26.6765 27.4706 26.9768 27.5707 27.2238 27.4472L30.2238 25.9472C30.3932 25.8625 30.5002 25.6894 30.5002 25.5V21.75ZM6.5002 25.191V23.6328L7.74676 25.8143L6.5002 25.191ZM18.5002 27.75C18.5002 27.4739 18.2763 27.25 18.0002 27.25C17.7241 27.25 17.5002 27.4739 17.5002 27.75V30.691L15.2238 29.5528C14.9768 29.4293 14.6765 29.5294 14.553 29.7764C14.4295 30.0234 14.5296 30.3237 14.7766 30.4472L17.7766 31.9472C17.9174 32.0176 18.083 32.0176 18.2238 31.9472L21.2238 30.4472C21.4708 30.3237 21.5709 30.0234 21.4474 29.7764C21.3239 29.5294 21.0236 29.4293 20.7766 29.5528L18.5002 30.691V27.75Z" fill="#1D1D1D"/>
</svg>
