<svg width="36" height="36" viewBox="0 0 36 36" fill="none" xmlns="http://www.w3.org/2000/svg">
<path fill-rule="evenodd" clip-rule="evenodd" d="M36 0H0V36H36V0ZM18.2238 4.05279C18.0831 3.9824 17.9174 3.9824 17.7766 4.05279L5.77661 10.0528C5.60721 10.1375 5.50021 10.3106 5.50021 10.5V25.5C5.50021 25.6894 5.60721 25.8625 5.77661 25.9472L17.7766 31.9472C17.9174 32.0176 18.0831 32.0176 18.2238 31.9472L30.2238 25.9472C30.3932 25.8625 30.5002 25.6894 30.5002 25.5V10.5C30.5002 10.3106 30.3932 10.1375 30.2238 10.0528L18.2238 4.05279ZM6.50021 25.191V11.309L17.5002 16.809V30.691L6.50021 25.191ZM18.5002 29.6172V16.809L28.7468 11.6857L18.5002 29.6172ZM19.2537 30.3143L29.5002 12.3828V25.191L19.2537 30.3143ZM18.0002 5.05902L27.8822 10H8.11825L18.0002 5.05902ZM18.0002 15.941L27.8822 11H8.11825L18.0002 15.941Z" fill="#1D1D1D"/>
</svg>
