<svg width="34" height="34" viewBox="0 0 34 34" fill="none" xmlns="http://www.w3.org/2000/svg">
<path fill-rule="evenodd" clip-rule="evenodd" d="M34 0H0V34H34V0ZM9.91667 12.6998C12.0882 12.3892 13.8058 10.6715 14.1165 8.50001H20.5417C23.2801 8.50001 25.5 10.7199 25.5 13.4583V14.2169C23.0971 14.5606 21.25 16.6271 21.25 19.125C21.25 21.8634 23.4699 24.0833 26.2083 24.0833C28.9467 24.0833 31.1667 21.8634 31.1667 19.125C31.1667 16.6271 29.3195 14.5606 26.9167 14.2169V13.4583C26.9167 9.93753 24.0625 7.08334 20.5417 7.08334H14.1165C13.7728 4.68047 11.7063 2.83334 9.20833 2.83334C6.46992 2.83334 4.25 5.05327 4.25 7.79168C4.25 10.2896 6.09713 12.3561 8.5 12.6998V21.3002C6.09713 21.6439 4.25 23.7104 4.25 26.2083C4.25 28.9468 6.46992 31.1667 9.20833 31.1667C11.9467 31.1667 14.1667 28.9468 14.1667 26.2083C14.1667 23.7104 12.3195 21.6439 9.91667 21.3002V12.6998ZM9.20833 11.3333C7.25233 11.3333 5.66667 9.74769 5.66667 7.79168C5.66667 5.83567 7.25233 4.25001 9.20833 4.25001C11.1643 4.25001 12.75 5.83567 12.75 7.79168C12.75 9.74769 11.1643 11.3333 9.20833 11.3333ZM9.20833 29.75C7.25233 29.75 5.66667 28.1644 5.66667 26.2083C5.66667 24.2523 7.25233 22.6667 9.20833 22.6667C11.1643 22.6667 12.75 24.2523 12.75 26.2083C12.75 28.1644 11.1643 29.75 9.20833 29.75ZM22.6667 19.125C22.6667 17.169 24.2523 15.5833 26.2083 15.5833C28.1643 15.5833 29.75 17.169 29.75 19.125C29.75 21.081 28.1643 22.6667 26.2083 22.6667C24.2523 22.6667 22.6667 21.081 22.6667 19.125Z" fill="#1D1D1D"/>
</svg>
