<svg width="36" height="36" viewBox="0 0 36 36" fill="none" xmlns="http://www.w3.org/2000/svg">
<path fill-rule="evenodd" clip-rule="evenodd" d="M36 0H0V36H36V0ZM4.97816 25.6964C4.96334 25.7214 4.95013 25.7468 4.9385 25.7727C4.65227 26.1553 4.5 26.5654 4.5 27C4.5 29.7311 10.5144 31.5 18 31.5C25.4856 31.5 31.5 29.7311 31.5 27C31.5 26.719 31.4363 26.4482 31.3139 26.1884C31.3049 26.0775 31.2709 25.9669 31.2099 25.8649L18.6436 4.86489C18.3519 4.37749 17.6454 4.37859 17.3552 4.86688L4.97816 25.6964ZM18 22.5C13.889 22.5 10.2217 23.0335 7.75067 23.9669L18.0023 6.71439L28.3489 24.005C25.8774 23.048 22.1666 22.5 18 22.5ZM6 27C6 26.8861 6.03521 26.771 6.10343 26.6557C6.16707 26.6026 6.22293 26.538 6.26768 26.4627L6.30061 26.4073C7.52175 25.1787 12.3175 24 18 24C24.5976 24 30 25.5889 30 27C30 28.4111 24.5976 30 18 30C11.4024 30 6 28.4111 6 27Z" fill="#1D1D1D"/>
</svg>
