<svg width="36" height="36" viewBox="0 0 36 36" fill="none" xmlns="http://www.w3.org/2000/svg">
<path fill-rule="evenodd" clip-rule="evenodd" d="M36 0H0V36H36V0ZM14 4.5C14 4.22386 13.7761 4 13.5 4C13.2239 4 13 4.22386 13 4.5V7H10.5C9.57174 7 8.6815 7.36875 8.02513 8.02513C7.36875 8.6815 7 9.57174 7 10.5V13H4.5C4.22386 13 4 13.2239 4 13.5C4 13.7761 4.22386 14 4.5 14H7V22H4.5C4.22386 22 4 22.2239 4 22.5C4 22.7761 4.22386 23 4.5 23H7V25.5C7 26.4283 7.36875 27.3185 8.02513 27.9749C8.6815 28.6313 9.57174 29 10.5 29H13V31.5C13 31.7761 13.2239 32 13.5 32C13.7761 32 14 31.7761 14 31.5V29H22V31.5C22 31.7761 22.2239 32 22.5 32C22.7761 32 23 31.7761 23 31.5V29H25.5C26.4283 29 27.3185 28.6313 27.9749 27.9749C28.6313 27.3185 29 26.4283 29 25.5V23H31.5C31.7761 23 32 22.7761 32 22.5C32 22.2239 31.7761 22 31.5 22H29V14H31.5C31.7761 14 32 13.7761 32 13.5C32 13.2239 31.7761 13 31.5 13H29V10.5C29 9.57174 28.6313 8.6815 27.9749 8.02513C27.3185 7.36875 26.4283 7 25.5 7H23V4.5C23 4.22386 22.7761 4 22.5 4C22.2239 4 22 4.22386 22 4.5V7H14V4.5ZM10.5 8H13.5H22.5H25.5C26.163 8 26.7989 8.26339 27.2678 8.73223C27.7366 9.20107 28 9.83696 28 10.5V13.5V22.5V25.5C28 26.163 27.7366 26.7989 27.2678 27.2678C26.7989 27.7366 26.163 28 25.5 28H22.5H13.5H10.5C9.83696 28 9.20107 27.7366 8.73223 27.2678C8.26339 26.7989 8 26.163 8 25.5V22.5V13.5V10.5C8 9.83696 8.26339 9.20107 8.73223 8.73223C9.20107 8.26339 9.83696 8 10.5 8ZM13.5 13C13.2239 13 13 13.2239 13 13.5V22.5C13 22.7761 13.2239 23 13.5 23H22.5C22.7761 23 23 22.7761 23 22.5V13.5C23 13.2239 22.7761 13 22.5 13H13.5ZM14 22V14H22V22H14Z" fill="#1D1D1D"/>
</svg>
