<svg width="37" height="37" viewBox="0 0 37 37" fill="none" xmlns="http://www.w3.org/2000/svg">
<path fill-rule="evenodd" clip-rule="evenodd" d="M37 0L0 -1.61732e-06L-1.61732e-06 37L37 37L37 0ZM18.5 13.875C15.9457 13.875 13.875 15.9457 13.875 18.5C13.875 21.0543 15.9457 23.125 18.5 23.125C21.0543 23.125 23.125 21.0543 23.125 18.5C23.125 15.9457 21.0543 13.875 18.5 13.875ZM18.5 21.5833C16.7971 21.5833 15.4167 20.2029 15.4167 18.5C15.4167 16.7971 16.7971 15.4166 18.5 15.4166C20.2029 15.4166 21.5833 16.7971 21.5833 18.5C21.5833 20.2029 20.2029 21.5833 18.5 21.5833ZM11.0453 13.6757C11.361 13.9614 11.8485 13.937 12.1341 13.6213C12.3258 13.4094 12.528 13.2072 12.7399 13.0155C16.2557 9.83429 21.6847 10.1055 24.8659 13.6213C25.1516 13.937 25.639 13.9614 25.9547 13.6757C26.2704 13.3901 26.2947 12.9026 26.0091 12.587C22.2566 8.4398 15.8527 8.11987 11.7055 11.8724C11.4556 12.0985 11.2171 12.337 10.9909 12.587C10.7053 12.9026 10.7296 13.3901 11.0453 13.6757ZM29.0198 10.6083C29.3443 10.3328 29.384 9.84632 29.1084 9.52183C24.1327 3.66299 15.3496 2.94704 9.49074 7.92272C8.91521 8.4115 8.38041 8.9463 7.89163 9.52183C7.61605 9.84632 7.65571 10.3328 7.9802 10.6083C8.30469 10.8839 8.79114 10.8443 9.06672 10.5198C9.50135 10.008 9.97691 9.53244 10.4887 9.09781C15.6986 4.67328 23.5088 5.30992 27.9333 10.5198C28.2089 10.8443 28.6953 10.8839 29.0198 10.6083ZM25.9526 23.3223C25.6359 23.0379 25.1485 23.064 24.864 23.3807C21.7071 26.8955 16.2986 27.1855 12.7839 24.0286C12.5565 23.8244 12.3402 23.6081 12.136 23.3807C11.8515 23.064 11.3641 23.0379 11.0474 23.3223C10.7307 23.6068 10.7046 24.0942 10.989 24.4109C11.2301 24.6793 11.4853 24.9345 11.7537 25.1756C15.9019 28.9014 22.2851 28.5591 26.011 24.4109C26.2954 24.0942 26.2693 23.6068 25.9526 23.3223ZM29.0201 26.3919C28.6958 26.1161 28.2093 26.1555 27.9336 26.4799C23.5041 31.6899 15.6898 32.3226 10.4798 27.8932C9.97137 27.4609 9.49871 26.9883 9.06645 26.4798C8.7907 26.1555 8.30422 26.1161 7.97988 26.3919C7.65554 26.6676 7.61615 27.1541 7.8919 27.4784C8.37798 28.0502 8.90948 28.5817 9.48122 29.0678C15.3399 34.0487 24.1272 33.3371 29.1081 27.4784C29.3839 27.1541 29.3445 26.6676 29.0201 26.3919Z" fill="#1D1D1D"/>
</svg>
