<svg width="209" height="407" viewBox="0 0 209 407" fill="none" xmlns="http://www.w3.org/2000/svg">
<path d="M48.9031 1.1379C6.47779 21.151 -22.4594 45.2572 28.2874 50.9851M28.2874 50.9851C37.163 51.9869 48.4761 52.4266 62.5808 52.1838C141.032 50.8334 136.538 68.0349 107.692 86.8355M28.2874 50.9851C36.3954 45.5367 46.6699 39.959 57.8873 34.6674M28.2874 50.9851C5.73043 66.1432 -0.057544 80.3012 37.2716 84.5146M107.692 86.8355C98.961 92.5258 87.9995 98.3626 76.4316 103.876M107.692 86.8355C98.3742 85.8696 86.4657 85.4568 71.565 85.7133C57.4603 85.9561 46.1472 85.5165 37.2716 84.5146M107.692 86.8355C147.43 90.955 140.043 105.135 116.676 120.365M37.2716 84.5146C45.3796 79.0662 55.6541 73.4885 66.8715 68.1969M37.2716 84.5146C14.7146 99.6728 8.92667 113.831 46.2558 118.044M116.676 120.365C107.945 126.055 96.9837 131.892 85.4158 137.405M116.676 120.365C107.358 119.399 95.45 118.986 80.5492 119.243C66.4445 119.486 55.1314 119.046 46.2558 118.044M116.676 120.365C156.414 124.485 149.027 138.665 125.66 153.895M46.2558 118.044C54.3638 112.596 64.6383 107.018 75.8557 101.726M46.2558 118.044C23.6988 133.202 17.9109 147.36 55.2401 151.574M125.66 153.895C116.929 159.585 105.968 165.422 94.4 170.935M125.66 153.895C116.343 152.929 104.434 152.516 89.5334 152.772C75.4287 153.015 64.1156 152.575 55.2401 151.574M125.66 153.895C165.399 158.014 158.012 172.194 134.644 187.424M55.2401 151.574C63.348 146.125 73.6225 140.548 84.8399 135.256M55.2401 151.574C32.683 166.732 26.8951 180.89 64.2243 185.103M134.644 187.424C125.914 193.114 114.952 198.951 103.384 204.464M134.644 187.424C125.327 186.458 113.418 186.045 98.5176 186.302C84.4129 186.545 73.0998 186.105 64.2243 185.103M134.644 187.424C174.383 191.544 166.996 205.724 143.629 220.954M64.2243 185.103C72.3322 179.655 82.6067 174.077 93.8241 168.785M64.2243 185.103C41.6673 200.261 35.8793 214.419 73.2085 218.633M143.629 220.954C134.898 226.644 123.936 232.481 112.368 237.994M143.629 220.954C134.311 219.988 122.403 219.575 107.502 219.831C93.3971 220.074 82.084 219.635 73.2085 218.633M143.629 220.954C183.367 225.073 175.98 239.253 152.613 254.483M73.2085 218.633C81.3164 213.184 91.5909 207.607 102.808 202.315M73.2085 218.633C50.6515 233.791 44.8635 247.949 82.1927 252.162M152.613 254.483C143.882 260.173 132.921 266.01 121.353 271.523M152.613 254.483C143.295 253.517 131.387 253.104 116.486 253.361C102.381 253.604 91.0683 253.164 82.1927 252.162M152.613 254.483C192.351 258.603 184.964 272.783 161.597 288.013M82.1927 252.162C90.3006 246.714 100.575 241.136 111.793 235.845M82.1927 252.162C59.6357 267.32 53.8477 281.478 91.1769 285.692M161.597 288.013C152.866 293.703 141.905 299.54 130.337 305.053M161.597 288.013C152.279 287.047 140.371 286.634 125.47 286.89C111.366 287.133 100.052 286.694 91.1769 285.692M161.597 288.013C201.335 292.132 193.948 306.312 170.581 321.542M91.1769 285.692C99.2848 280.243 109.559 274.666 120.777 269.374M91.1769 285.692C68.6199 300.85 62.8319 315.008 100.161 319.221M170.581 321.542C161.85 327.232 150.889 333.069 139.321 338.582M170.581 321.542C161.264 320.576 149.355 320.163 134.454 320.42C120.35 320.663 109.037 320.223 100.161 319.221M170.581 321.542C210.32 325.662 202.933 339.842 179.565 355.072M100.161 319.221C108.269 313.773 118.544 308.195 129.761 302.904M100.161 319.221C72.2408 337.983 70.0118 355.213 143.439 353.949C158.339 353.693 170.248 354.106 179.565 355.072M179.565 355.072C170.835 360.762 159.873 366.599 148.305 372.112M179.565 355.072C234.151 360.73 199.818 385.373 157.289 405.641" stroke="black"/>
</svg>
